<mxfile host="app.diagrams.net" modified="2024-05-19T09:10:36.017Z" agent="Mozilla/5.0 (Windows NT 10.0; Win64; x64) AppleWebKit/537.36 (KHTML, like Gecko) Chrome/124.0.0.0 Safari/537.36" version="24.0.1" etag="dVbraElQ0-U-oDBBOOIA" type="github">
  <diagram name="Page-1" id="EI2GyC2PJSIi0Hi3z6EL">
    <mxGraphModel>
      <root>
        <mxCell id="0" />
        <mxCell id="1" parent="0" />
      </root>
    </mxGraphModel>
  </diagram>
</mxfile>
